# xmcd CD database file
#
# Track frame offsets:
#	150
#	22067
#	44581
#	59718
#	79803
#	103697
#	125117
#	143144
#	164908
#	182825
#	203080
#
# Disc length: 2993 seconds
#
# Revision: 1
# Processed by: cddbd v1.5.1PL0 Copyright (c) Steve Scherf et al.
# Submitted via: CDex 1.51
#
DISCID=ad0baf0b
DTITLE=安倍麻美 - Wishes
DYEAR=2003
DGENRE=JPop
TTITLE0=理由 (Album version)
TTITLE1=捨てるのは拾うため　泣くのは笑うために
TTITLE2=水たまりの中の月
TTITLE3=きみをつれていく
TTITLE4=Rolling Stone
TTITLE5=Our Song
TTITLE6=夢見
TTITLE7=Answer Me
TTITLE8=赤い花
TTITLE9=守ってあげるよ
TTITLE10=Wish for Loving　〜愛せたらいいのに
EXTD=YEAR: 2003
EXTT0=
EXTT1=
EXTT2=
EXTT3=
EXTT4=
EXTT5=
EXTT6=
EXTT7=
EXTT8=
EXTT9=
EXTT10=
PLAYORDER=
